<svg width="201" height="43" viewBox="0 0 201 43" fill="none" xmlns="http://www.w3.org/2000/svg">
<path d="M37.5671 12.0803C37.5691 13.8821 37.1674 15.6614 36.3916 17.2874C35.6158 18.9135 34.4857 20.3449 33.0842 21.4764L0.851734 3.17275C0.728445 3.10246 0.614058 3.01759 0.51104 2.91995C0.349403 2.76145 0.22096 2.5723 0.133215 2.36356C0.0454702 2.15483 0.000183295 1.9307 0 1.70425C0 1.25226 0.179472 0.818774 0.498934 0.499164C0.818396 0.179555 1.25168 0 1.70347 0L25.4924 0C28.6948 0 31.7661 1.27274 34.0305 3.53824C36.295 5.80374 37.5671 8.87642 37.5671 12.0803Z" fill="#18B4F4"/>
<path d="M37.5669 30.8726C37.5673 32.4592 37.2553 34.0304 36.6486 35.4964C36.042 36.9624 35.1526 38.2944 34.0313 39.4165C32.91 40.5386 31.5788 41.4286 30.1136 42.0359C28.6485 42.6432 27.0781 42.9557 25.4922 42.9557H1.70325C1.36627 42.9521 1.03794 42.8486 0.75979 42.6582C0.48164 42.4679 0.266172 42.1993 0.140647 41.8864C0.0151229 41.5735 -0.0148179 41.2304 0.054613 40.9005C0.124044 40.5705 0.289727 40.2686 0.530699 40.0329C0.626749 39.9365 0.734534 39.8525 0.851519 39.783L13.5367 32.5797L33.0811 21.4793C34.4824 22.6106 35.6127 24.0415 36.389 25.6669C37.1652 27.2924 37.5677 29.0711 37.5669 30.8726Z" fill="#FD6B3C"/>
<path d="M33.0846 21.4765L13.5373 32.5797L0.852105 39.7831C0.730301 39.8507 0.617704 39.9338 0.51709 40.0302C5.35384 35.0672 8.0582 28.4081 8.0521 21.4765C8.06121 14.544 5.35761 7.88338 0.519929 2.92004C0.622947 3.01768 0.737333 3.10255 0.860623 3.17284L33.0846 21.4765Z" fill="#A97FF2"/>
<path d="M63.9848 15.753C69.558 15.753 72.7065 20.2068 72.7065 25.6007C72.7065 30.9947 69.558 35.4144 63.9848 35.4144C61.0889 35.4144 58.8744 34.2555 57.6507 32.2899L57.1454 34.9713H53.6589V9.08936H57.9744V18.6474C59.0249 17.0425 61.0889 15.753 63.9848 15.753ZM63.116 31.6111C66.3725 31.6111 68.3996 28.9695 68.3996 25.6007C68.3996 22.161 66.3725 19.5535 63.116 19.5535C59.8596 19.5535 57.8296 22.1553 57.8296 25.6007C57.8296 28.9723 59.8226 31.6111 63.116 31.6111Z" fill="white"/>
<path d="M87.8711 27.2313V16.1906H92.178V27.0126C92.178 31.8413 89.972 35.4145 83.8906 35.4145C77.8093 35.4145 75.6033 31.8299 75.6033 27.0126V16.1906H79.9102V27.2313C79.9102 30.1626 81.2843 31.6112 83.885 31.6112C86.4856 31.6112 87.8711 30.1626 87.8711 27.2313Z" fill="white"/>
<path d="M95.6238 10.3963C95.6094 10.0182 95.6734 9.64116 95.8118 9.28904C95.9503 8.93693 96.1602 8.61734 96.4283 8.35045C96.6964 8.08356 97.0169 7.87516 97.3695 7.7384C97.7221 7.60163 98.0993 7.53948 98.4771 7.55585C100.112 7.55585 101.291 8.73462 101.291 10.4105C101.291 12.0863 100.112 13.1856 98.4771 13.1856C96.8418 13.1856 95.6238 12.0295 95.6238 10.3963Z" fill="white"/>
<path d="M172.461 10.396C172.447 10.0191 172.511 9.64337 172.648 9.29226C172.786 8.94114 172.995 8.62225 173.261 8.35558C173.528 8.0889 173.846 7.88019 174.197 7.74253C174.548 7.60486 174.924 7.54122 175.301 7.55557C176.936 7.55557 178.114 8.73435 178.114 10.4102C178.114 12.086 176.936 13.1853 175.301 13.1853C173.665 13.1853 172.461 12.0292 172.461 10.396Z" fill="white"/>
<path d="M164.175 32.3551C164.16 31.9781 164.223 31.6022 164.361 31.2509C164.498 30.8996 164.707 30.5805 164.974 30.3137C165.24 30.047 165.559 29.8383 165.91 29.7008C166.261 29.5632 166.637 29.4999 167.014 29.5147C168.649 29.5147 169.828 30.6935 169.828 32.3551C169.828 34.0167 168.649 35.133 167.014 35.133C165.379 35.133 164.175 33.9912 164.175 32.3551Z" fill="white"/>
<path d="M100.612 16.1877H96.3047V34.98H100.612V16.1877Z" fill="white"/>
<path d="M104.919 34.9798V9.08936H109.226V34.9855L104.919 34.9798Z" fill="white"/>
<path d="M126.997 9.08936H131.304V34.9855H127.826L127.321 32.3041C126.128 34.2612 123.914 35.4286 120.989 35.4286C115.45 35.4286 112.302 30.9748 112.302 25.6149C112.302 20.2551 115.45 15.7672 120.989 15.7672C123.919 15.7672 125.947 17.0681 126.997 18.6616V9.08936ZM121.887 19.5592C118.63 19.5592 116.603 22.1667 116.603 25.6064C116.603 28.9752 118.63 31.6167 121.887 31.6167C125.143 31.6167 127.17 28.9752 127.17 25.6064C127.176 22.1553 125.186 19.5535 121.892 19.5535L121.887 19.5592Z" fill="white"/>
<path d="M152.329 29.8388C150.992 33.2047 147.877 35.4145 143.789 35.4145C138.111 35.4145 134.42 31.1766 134.42 25.5639C134.42 20.0961 138.185 15.7531 143.758 15.7531C149.331 15.7531 152.988 19.9882 152.988 25.4929C153.006 25.942 152.966 26.3915 152.871 26.8308H138.65C138.974 29.8018 140.893 31.7191 143.897 31.7191C145.961 31.7191 147.662 30.7051 148.457 28.8247L152.329 29.8388ZM138.721 23.6466H148.712C148.349 21.0391 146.54 19.2639 143.752 19.2639C140.964 19.2639 139.156 21.0761 138.721 23.6466Z" fill="white"/>
<path d="M166.157 20.0617C165.834 20.0168 165.507 19.9921 165.181 19.9879C162.14 19.9879 160.331 21.5813 160.331 25.2029V34.9796H156.024V16.1902H159.502L160.005 18.7949C160.692 17.6019 162.276 16.0084 165.544 16.0084C165.723 16.0084 166.157 16.0453 166.157 16.0453V20.0617Z" fill="white"/>
<path d="M177.451 16.1877H173.144V34.98H177.451V16.1877Z" fill="white"/>
<path d="M180.524 25.6009C180.524 20.3148 184.289 15.7531 190.26 15.7531C196.23 15.7531 200.032 20.3148 200.032 25.6009C200.032 30.8869 196.27 35.4145 190.26 35.4145C184.249 35.4145 180.524 30.8869 180.524 25.6009ZM190.26 31.6112C193.411 31.6112 195.725 29.2224 195.725 25.6009C195.725 21.9793 193.411 19.5536 190.26 19.5536C187.108 19.5536 184.826 21.9424 184.826 25.6009C184.826 29.2593 187.148 31.6112 190.26 31.6112Z" fill="white"/>
</svg>
