<svg width="720" height="259" viewBox="0 0 720 259" fill="none" xmlns="http://www.w3.org/2000/svg">
<g clip-path="url(#clip0_274_150)">
<path d="M0 0V201.6L25.9 201.7V105.7H88.4V80.3H25.9V25.4H107.4V0H0Z" fill="white"/>
<path d="M154.1 40.8996C163.4 40.8996 171 33.2996 171 23.9996C171 14.6996 163.4 7.09961 154.1 7.09961C144.8 7.09961 137.2 14.6996 137.2 23.9996C137.2 33.2996 144.7 40.8996 154.1 40.8996Z" fill="white"/>
<path d="M140.9 66.2998V201.6H166.8V66.2998H140.9Z" fill="white"/>
<path fill-rule="evenodd" clip-rule="evenodd" d="M263 62.4004C228.6 62.4004 204.5 91.5004 204.5 126.1C204.5 160.7 228.5 189.8 263 189.8C278.8 189.8 291.8 183.7 301.2 173.8V191.8C301.2 214.2 283.6 233 260.6 233C252.3 233 244.1 229.8 237.6 225.3L224.6 247.8C235 254.5 247.3 258.4 260.6 258.4C297.4 258.4 327.1 228.6 327.1 191.9V66.3004H301.2V78.4004C291.8 68.5004 278.8 62.4004 263 62.4004ZM230.5 126.1C230.5 104.6 246.9 87.8004 265.9 87.8004C284.8 87.8004 301.3 104.7 301.3 126.1C301.3 147.5 284.9 164.4 265.9 164.4C246.9 164.4 230.5 147.6 230.5 126.1Z" fill="white"/>
<path d="M420.7 87.7004C405.4 87.7004 392.9 100.7 392.9 116V201.6H367V66.3004H392.9V78.7004C400.5 68.9004 411.7 62.4004 426.3 62.4004C444.5 62.4004 458.4 71.4004 466.5 85.2004C475.5 71.9004 490.1 62.4004 507.8 62.4004C537.3 62.4004 555.7 86.2004 555.9 115.7C555.9 115.8 555.9 115.9 555.9 116V116.1V201.7H530V116.1C530 100.8 517.6 87.8004 502.2 87.8004C486.9 87.8004 474.4 100.8 474.4 116.1V201.7H448.5V116.1C448.5 100.7 436 87.7004 420.7 87.7004Z" fill="white"/>
<path fill-rule="evenodd" clip-rule="evenodd" d="M694.1 81.7004C682.6 69.8004 666.8 62.4004 648.4 62.4004C609.8 62.4004 582.4 95.1004 582.4 134C582.4 172.9 609.8 205.6 648.4 205.6C666.7 205.6 682.5 198.2 694.1 186.3V201.6H720V66.3004H694.1V81.7004ZM608.3 134C608.3 108.2 628.1 87.8004 651.2 87.8004C674.3 87.8004 694.1 108.2 694.1 134C694.1 159.8 674.3 180.2 651.2 180.2C628.1 180.2 608.3 159.8 608.3 134Z" fill="white"/>
</g>
<defs>
<clipPath id="clip0_274_150">
<rect width="720" height="258.3" fill="white"/>
</clipPath>
</defs>
</svg>
